# xmcd CD database file
#
# Track frame offsets:
#	150
#	10189
#	28890
#	42663
#	55546
#	66751
#	82866
#	92802
#	103555
#	115349
#	126941
#	138582
#	150191
#	158372
#	176160
#	189218
#
# Disc length: 2778 seconds
#
# Revision: 0
# Processed by: cddbd v1.5.1PL2 Copyright (c) Steve Scherf et al.
# Submitted via: Feurio! 1.68 - http://www.feurio.com
#
DISCID=c40ad810
DTITLE=Pink Cadillac - Trebute To Rock'n'Roll
DYEAR=2005
DGENRE=Original CD
TTITLE0=All Shock Up
TTITLE1=Goodbye
TTITLE2=A Mess of Blues
TTITLE3=Thats All Right Mama
TTITLE4=Pretty Baby
TTITLE5=Stray Cat Strut
TTITLE6=Mona Lisa
TTITLE7=High Scool Confidential
TTITLE8=Miss You
TTITLE9=Blue Suede Shoes
TTITLE10=Tryin To Get You
TTITLE11=Cherry Red
TTITLE12=Great Balls Of Fire
TTITLE13=Let Me Be Your Cover
TTITLE14=One Night With You
TTITLE15=Jonny B. Goode
EXTD=
EXTT0=
EXTT1=
EXTT2=
EXTT3=
EXTT4=
EXTT5=
EXTT6=
EXTT7=
EXTT8=
EXTT9=
EXTT10=
EXTT11=
EXTT12=
EXTT13=
EXTT14=
EXTT15=
PLAYORDER=
